PathFileType	4	(X/Y/Z)	C:/Users/opensim2020/Desktop/walking_exp_matlab/subject03_walking12_straight_01.trc																																																																																																																																														
DataRate	CameraRate	NumFrames	NumMarkers	Units	OrigDataRate	OrigDataStartFrame	OrigNumFrames																																																																																																																																										
100	100	5	48	mm	100	713	211																																																																																																																																										
Frame#	Time	LFHD			RFHD			LBHD			RBHD			C7			T10			CLAV			STRN			RBAK			LSHO			LUPA			LELB			LFRM			LWRA			LWRB			LFIN			RSHO			RUPA			RELB			RFRM			RWRA			RWRB			RFIN			LASI			RASI			LPSI			RPSI			LTHI			LKNE			LTIB			LANK			LHEE			LTOE			RTHI			RKNE			RTIB			RANK			RHEE			RTOE			*39			*40			*41			*42			*43			*44			*45			*46			*47		
		X1	Y1	Z1	X2	Y2	Z2	X3	Y3	Z3	X4	Y4	Z4	X5	Y5	Z5	X6	Y6	Z6	X7	Y7	Z7	X8	Y8	Z8	X9	Y9	Z9	X10	Y10	Z10	X11	Y11	Z11	X12	Y12	Z12	X13	Y13	Z13	X14	Y14	Z14	X15	Y15	Z15	X16	Y16	Z16	X17	Y17	Z17	X18	Y18	Z18	X19	Y19	Z19	X20	Y20	Z20	X21	Y21	Z21	X22	Y22	Z22	X23	Y23	Z23	X24	Y24	Z24	X25	Y25	Z25	X26	Y26	Z26	X27	Y27	Z27	X28	Y28	Z28	X29	Y29	Z29	X30	Y30	Z30	X31	Y31	Z31	X32	Y32	Z32	X33	Y33	Z33	X34	Y34	Z34	X35	Y35	Z35	X36	Y36	Z36	X37	Y37	Z37	X38	Y38	Z38	X39	Y39	Z39	X40	Y40	Z40	X41	Y41	Z41	X42	Y42	Z42	X43	Y43	Z43	X44	Y44	Z44	X45	Y45	Z45	X46	Y46	Z46	X47	Y47	Z47	X48	Y48	Z48
																																																																																																																																																	
159	1.58	558.8443	1598.25281	-1080.70007	538.07782	1606.66382	-949.62042	439.74948	1535.9187	-1092.12305	424.42581	1544.25549	-962.6972	415.32425	1384.22571	-1025.73633	392.15103	1072.06165	-1022.88855	540.76874	1313.46948	-1018.59753	591.20508	1150.05603	-1019.3562	368.63791	1209.44104	-926.65387	497.57193	1346.18555	-1177.99548	458.61722	1150.47144	-1247.00452	439.78342	1029.19849	-1262.23853	428.6134	898.87561	-1270.01379	409.44275	778.00348	-1246.76062	388.97473	793.98822	-1297.76563	358.59576	711.3985	-1288.20447	487.49707	1338.85193	-861.27234	534.88806	1126.97168	-782.91632	581.87433	1025.92029	-767.85101	654.53595	910.66541	-766.99847	726.79565	844.71075	-801.10101	697.71271	820.58472	-763.64008	757.86304	782.16168	-763.62518	569.77771	917.15588	-1129.80774	543.77881	905.95709	-893.55908	401.68201	932.39294	-1101.96948	388.32883	938.92035	-952.35559	598.1402	626.34052	-1188.45459	660.66132	467.64157	-1141.50439	667.89685	269.27121	-1146.65234	711.69647	63.79617	-1115.24353	673.20013	29.06293	-1080.02185	861.1228	37.49021	-1081.20959	432.78201	621.5553	-863.35675	400.28348	443.99048	-897.09113	270.45541	295.2424	-897.88806	137.5807	124.36366	-946.74634	84.17311	117.82311	-996.95557	247.0161	29.75183	-967.77338	461.26913	1649.224	-1046.52344	NaN	NaN	NaN	NaN	NaN	NaN	NaN	NaN	NaN	NaN	NaN	NaN	NaN	NaN	NaN	NaN	NaN	NaN	NaN	NaN	NaN	NaN	NaN	NaN
160	1.59	573.36523	1598.98071	-1080.61548	552.0484	1606.97229	-949.59723	454.27332	1536.92236	-1092.80542	438.38138	1544.82117	-963.41675	429.61737	1384.78125	-1026.96338	407.1839	1072.28796	-1023.23376	554.99713	1314.10632	-1019.38184	605.8266	1150.91394	-1020.04767	382.81558	1209.18079	-928.14099	512.52625	1346.54932	-1178.91028	473.03305	1150.95935	-1248.1073	453.01419	1029.91626	-1263.27539	440.28989	899.70044	-1270.94507	419.02319	779.13306	-1247.59534	399.69806	795.16888	-1299.00891	366.05313	713.44177	-1288.69263	501.3924	1339.20105	-861.93073	547.26898	1126.56445	-783.6814	593.62427	1025.13184	-768.64734	665.22211	909.12683	-767.75793	736.85858	842.35724	-801.60486	707.48383	818.65906	-764.3512	767.21332	779.4436	-764.13959	585.26898	918.66394	-1130.46863	560.09216	905.35626	-894.64819	417.18448	934.19434	-1102.33765	404.48004	938.97791	-952.33362	613.28516	628.61481	-1187.89185	675.3374	469.41806	-1142.45715	678.46259	270.26563	-1147.61487	716.31494	63.83221	-1114.79883	675.41846	30.78908	-1080.16675	866.06104	35.58176	-1083.98682	449.92221	620.52832	-864.06757	418.13065	442.78479	-896.68866	283.55051	298.12183	-897.57831	145.42522	131.96577	-946.25269	92.42089	128.1946	-996.88385	248.1848	29.73095	-967.87714	475.47812	1646.16321	-1048.32239	NaN	NaN	NaN	NaN	NaN	NaN	NaN	NaN	NaN	NaN	NaN	NaN	NaN	NaN	NaN	NaN	NaN	NaN	NaN	NaN	NaN	NaN	NaN	NaN
161	1.6	587.98462	1600.11035	-1080.46692	566.12872	1607.65283	-949.46539	468.83884	1538.24536	-1093.45325	452.3421	1545.74133	-964.1059	443.93085	1385.84412	-1028.05591	422.1268	1072.96265	-1023.77307	569.18024	1315.18762	-1020.15088	620.42755	1152.20459	-1020.82043	397.10104	1209.94397	-929.57202	527.49127	1347.31873	-1179.80164	487.71512	1151.79102	-1249.13037	466.51492	1030.9386	-1264.18103	452.72308	900.76263	-1271.71655	429.85617	780.55859	-1248.45679	411.51981	796.52435	-1300.12573	375.16986	715.64502	-1289.22632	515.47675	1339.84924	-862.60327	559.65527	1126.58777	-784.49841	605.11157	1024.54272	-769.36499	675.17108	907.54065	-768.49677	746.73987	840.36469	-801.76343	716.46082	816.63232	-765.07239	775.64075	776.42523	-764.72626	600.5744	920.79938	-1130.91858	576.20551	905.17639	-895.77008	432.44141	936.43958	-1102.50635	420.5882	939.25256	-952.23688	627.59833	630.67969	-1187.45532	690.63983	471.14722	-1143.17773	688.66943	271.59225	-1148.3811	717.80927	64.3517	-1113.87	676.59424	31.3291	-1080.03357	868.10754	34.29122	-1084.82507	467.90115	619.50195	-864.62524	437.79211	441.54129	-895.94818	298.44571	301.22256	-897.35559	154.96269	140.23846	-946.13995	103.16085	139.65282	-997.54028	249.72717	29.7553	-968.1488	490.42923	1651.0072	-1046.96252	NaN	NaN	NaN	NaN	NaN	NaN	NaN	NaN	NaN	NaN	NaN	NaN	NaN	NaN	NaN	NaN	NaN	NaN	NaN	NaN	NaN	NaN	NaN	NaN
162	1.61	602.61621	1601.59216	-1080.22705	580.21399	1608.67163	-949.32886	483.42075	1540.01892	-1094.03223	466.32196	1546.99976	-964.73914	458.13174	1387.17578	-1028.94592	436.87027	1074.12158	-1024.36121	583.26489	1316.61169	-1020.86462	634.74982	1153.79919	-1021.47882	411.13635	1210.91882	-930.63171	542.41382	1348.50476	-1180.63403	502.71896	1152.97583	-1250.11621	480.95825	1032.12231	-1264.91003	466.11038	902.13513	-1272.35779	441.81949	782.04999	-1248.88062	424.46326	798.03571	-1301.01038	385.93643	717.92877	-1289.88306	529.64148	1340.85925	-863.36438	571.94275	1126.94775	-785.36163	616.38287	1024.28235	-770.16296	684.84192	906.19464	-769.23779	755.65485	838.185	-802.10486	724.71228	814.60101	-765.83405	782.95624	773.20056	-765.43195	615.61871	923.23669	-1131.45337	592.60687	905.79663	-897.3429	447.5434	938.8468	-1102.47656	435.88281	940.1366	-951.80212	641.57776	632.91986	-1187.93689	705.65173	473.21478	-1142.77991	698.48431	272.97614	-1149.93604	718.47015	64.60376	-1113.50244	676.58136	31.4232	-1080.15271	868.75964	33.52287	-1082.42517	486.79221	618.58588	-865.05695	459.36987	440.25803	-894.89063	315.26993	304.44229	-897.14703	167.17746	148.93835	-946.43896	116.79962	151.7924	-998.80316	251.61403	29.84732	-968.6723	505.04303	1652.38501	-1046.98267	NaN	NaN	NaN	NaN	NaN	NaN	NaN	NaN	NaN	NaN	NaN	NaN	NaN	NaN	NaN	NaN	NaN	NaN	NaN	NaN	NaN	NaN	NaN	NaN
163	1.62	617.28802	1603.26929	-1079.87402	594.36334	1609.86145	-949.06909	497.991	1542.11511	-1094.51941	480.32715	1548.5686	-965.34381	472.35843	1388.70837	-1029.82996	451.15179	1075.64209	-1024.66077	597.35962	1318.29285	-1021.5921	649.13672	1155.5387	-1022.09906	425.11694	1212.3407	-931.43542	557.22443	1350.03455	-1181.35815	517.98322	1154.45837	-1251.0238	495.81598	1033.64246	-1265.63879	480.38492	903.67102	-1272.8075	454.97794	783.91565	-1249.48438	438.52054	799.71918	-1301.8064	397.95239	719.74805	-1290.13574	543.80481	1342.23608	-864.13873	584.28998	1127.70178	-786.28174	627.47211	1024.38354	-770.9657	693.93707	905.10571	-769.95959	763.617	835.77875	-802.76996	732.21063	812.71033	-766.55322	789.56519	769.96844	-766.42126	630.36755	925.88757	-1132.10193	608.14783	906.74969	-898.67645	462.14954	941.23956	-1102.23096	451.18463	941.16913	-951.48309	655.68951	635.35565	-1188.49109	719.51166	474.85623	-1142.50085	707.18713	274.1412	-1150.69946	719.30176	64.6806	-1113.28455	677.013	31.70394	-1080.30701	869.46655	32.82644	-1082.09802	506.3504	617.7179	-865.46606	482.65097	438.88864	-893.68848	334.36685	307.87158	-896.69745	181.60031	157.26222	-947.02289	133.56442	163.9276	-1000.41699	254.13358	30.16948	-969.37177	519.78955	1654.11438	-1046.90723	NaN	NaN	NaN	NaN	NaN	NaN	NaN	NaN	NaN	NaN	NaN	NaN	NaN	NaN	NaN	NaN	NaN	NaN	NaN	NaN	NaN	NaN	NaN	NaN
